<svg width="1024" height="768" viewBox="0 0 1024 768" fill="none"
  xmlns="http://www.w3.org/2000/svg">
  <rect width="1024" height="768" fill="#B05F31"/>
  <rect y="362" width="1024" height="406" fill="#0E24ED"/>
  <path d="M268.25 514L291.625 580L314.875 514H339.5V605H320.688V580.125L322.562 537.188L298 605H285.125L260.625 537.25L262.5 580.125V605H243.75V514H268.25ZM379.938 579.438L392.438 537.375H411.812L384.625 615.5L383.125 619.062C379.083 627.896 372.417 632.312 363.125 632.312C360.5 632.312 357.833 631.917 355.125 631.125V617.438L357.875 617.5C361.292 617.5 363.833 616.979 365.5 615.938C367.208 614.896 368.542 613.167 369.5 610.75L371.625 605.188L347.938 537.375H367.375L379.938 579.438ZM476.5 514L499.875 580L523.125 514H547.75V605H528.938V580.125L530.812 537.188L506.25 605H493.375L468.875 537.25L470.75 580.125V605H452V514H476.5ZM560.125 570.562C560.125 563.854 561.417 557.875 564 552.625C566.583 547.375 570.292 543.312 575.125 540.438C580 537.562 585.646 536.125 592.062 536.125C601.188 536.125 608.625 538.917 614.375 544.5C620.167 550.083 623.396 557.667 624.062 567.25L624.188 571.875C624.188 582.25 621.292 590.583 615.5 596.875C609.708 603.125 601.938 606.25 592.188 606.25C582.438 606.25 574.646 603.125 568.812 596.875C563.021 590.625 560.125 582.125 560.125 571.375V570.562ZM578.188 571.875C578.188 578.292 579.396 583.208 581.812 586.625C584.229 590 587.688 591.688 592.188 591.688C596.562 591.688 599.979 590.021 602.438 586.688C604.896 583.312 606.125 577.938 606.125 570.562C606.125 564.271 604.896 559.396 602.438 555.938C599.979 552.479 596.521 550.75 592.062 550.75C587.646 550.75 584.229 552.479 581.812 555.938C579.396 559.354 578.188 564.667 578.188 571.875ZM659.625 582.938L672.188 537.375H691.062L668.25 605H651L628.188 537.375H647.062L659.625 582.938ZM718.125 605H700V537.375H718.125V605ZM698.938 519.875C698.938 517.167 699.833 514.938 701.625 513.188C703.458 511.438 705.938 510.562 709.062 510.562C712.146 510.562 714.604 511.438 716.438 513.188C718.271 514.938 719.188 517.167 719.188 519.875C719.188 522.625 718.25 524.875 716.375 526.625C714.542 528.375 712.104 529.25 709.062 529.25C706.021 529.25 703.562 528.375 701.688 526.625C699.854 524.875 698.938 522.625 698.938 519.875ZM764.188 606.25C754.271 606.25 746.188 603.208 739.938 597.125C733.729 591.042 730.625 582.938 730.625 572.812V571.062C730.625 564.271 731.938 558.208 734.562 552.875C737.188 547.5 740.896 543.375 745.688 540.5C750.521 537.583 756.021 536.125 762.188 536.125C771.438 536.125 778.708 539.042 784 544.875C789.333 550.708 792 558.979 792 569.688V577.062H748.938C749.521 581.479 751.271 585.021 754.188 587.688C757.146 590.354 760.875 591.688 765.375 591.688C772.333 591.688 777.771 589.167 781.688 584.125L790.562 594.062C787.854 597.896 784.188 600.896 779.562 603.062C774.938 605.188 769.812 606.25 764.188 606.25ZM762.125 550.75C758.542 550.75 755.625 551.958 753.375 554.375C751.167 556.792 749.75 560.25 749.125 564.75H774.25V563.312C774.167 559.312 773.083 556.229 771 554.062C768.917 551.854 765.958 550.75 762.125 550.75Z" fill="white"/>
  <path d="M352.445 244.141C352.445 240.156 351.039 237.109 348.227 235C345.414 232.844 340.352 230.594 333.039 228.25C325.727 225.859 319.938 223.516 315.672 221.219C304.047 214.938 298.234 206.477 298.234 195.836C298.234 190.305 299.781 185.383 302.875 181.07C306.016 176.711 310.492 173.312 316.305 170.875C322.164 168.438 328.727 167.219 335.992 167.219C343.305 167.219 349.82 168.555 355.539 171.227C361.258 173.852 365.688 177.578 368.828 182.406C372.016 187.234 373.609 192.719 373.609 198.859H352.516C352.516 194.172 351.039 190.539 348.086 187.961C345.133 185.336 340.984 184.023 335.641 184.023C330.484 184.023 326.477 185.125 323.617 187.328C320.758 189.484 319.328 192.344 319.328 195.906C319.328 199.234 320.992 202.023 324.32 204.273C327.695 206.523 332.641 208.633 339.156 210.602C351.156 214.211 359.898 218.688 365.383 224.031C370.867 229.375 373.609 236.031 373.609 244C373.609 252.859 370.258 259.82 363.555 264.883C356.852 269.898 347.828 272.406 336.484 272.406C328.609 272.406 321.438 270.977 314.969 268.117C308.5 265.211 303.555 261.25 300.133 256.234C296.758 251.219 295.07 245.406 295.07 238.797H316.234C316.234 250.094 322.984 255.742 336.484 255.742C341.5 255.742 345.414 254.734 348.227 252.719C351.039 250.656 352.445 247.797 352.445 244.141ZM421.633 272.406C410.477 272.406 401.383 268.984 394.352 262.141C387.367 255.297 383.875 246.18 383.875 234.789V232.82C383.875 225.18 385.352 218.359 388.305 212.359C391.258 206.312 395.43 201.672 400.82 198.438C406.258 195.156 412.445 193.516 419.383 193.516C429.789 193.516 437.969 196.797 443.922 203.359C449.922 209.922 452.922 219.227 452.922 231.273V239.57H404.477C405.133 244.539 407.102 248.523 410.383 251.523C413.711 254.523 417.906 256.023 422.969 256.023C430.797 256.023 436.914 253.188 441.32 247.516L451.305 258.695C448.258 263.008 444.133 266.383 438.93 268.82C433.727 271.211 427.961 272.406 421.633 272.406ZM419.312 209.969C415.281 209.969 412 211.328 409.469 214.047C406.984 216.766 405.391 220.656 404.688 225.719H432.953V224.102C432.859 219.602 431.641 216.133 429.297 213.695C426.953 211.211 423.625 209.969 419.312 209.969ZM508.609 271C507.672 269.172 506.992 266.898 506.57 264.18C501.648 269.664 495.25 272.406 487.375 272.406C479.922 272.406 473.734 270.25 468.812 265.938C463.938 261.625 461.5 256.188 461.5 249.625C461.5 241.562 464.477 235.375 470.43 231.062C476.43 226.75 485.078 224.57 496.375 224.523H505.727V220.164C505.727 216.648 504.812 213.836 502.984 211.727C501.203 209.617 498.367 208.562 494.477 208.562C491.055 208.562 488.359 209.383 486.391 211.023C484.469 212.664 483.508 214.914 483.508 217.773H463.188C463.188 213.367 464.547 209.289 467.266 205.539C469.984 201.789 473.828 198.859 478.797 196.75C483.766 194.594 489.344 193.516 495.531 193.516C504.906 193.516 512.336 195.883 517.82 200.617C523.352 205.305 526.117 211.914 526.117 220.445V253.422C526.164 260.641 527.172 266.102 529.141 269.805V271H508.609ZM491.805 256.867C494.805 256.867 497.57 256.211 500.102 254.898C502.633 253.539 504.508 251.734 505.727 249.484V236.406H498.133C487.961 236.406 482.547 239.922 481.891 246.953L481.82 248.148C481.82 250.68 482.711 252.766 484.492 254.406C486.273 256.047 488.711 256.867 491.805 256.867ZM584.477 213.977C581.711 213.602 579.273 213.414 577.164 213.414C569.477 213.414 564.438 216.016 562.047 221.219V271H541.727V194.922H560.922L561.484 203.992C565.562 197.008 571.211 193.516 578.43 193.516C580.68 193.516 582.789 193.82 584.758 194.43L584.477 213.977ZM624.555 256.023C628.305 256.023 631.352 254.992 633.695 252.93C636.039 250.867 637.258 248.125 637.352 244.703H656.406C656.359 249.859 654.953 254.594 652.188 258.906C649.422 263.172 645.625 266.5 640.797 268.891C636.016 271.234 630.719 272.406 624.906 272.406C614.031 272.406 605.453 268.961 599.172 262.07C592.891 255.133 589.75 245.57 589.75 233.383V232.047C589.75 220.328 592.867 210.977 599.102 203.992C605.336 197.008 613.891 193.516 624.766 193.516C634.281 193.516 641.898 196.234 647.617 201.672C653.383 207.062 656.312 214.258 656.406 223.258H637.352C637.258 219.32 636.039 216.133 633.695 213.695C631.352 211.211 628.258 209.969 624.414 209.969C619.68 209.969 616.094 211.703 613.656 215.172C611.266 218.594 610.07 224.172 610.07 231.906V234.016C610.07 241.844 611.266 247.469 613.656 250.891C616.047 254.312 619.68 256.023 624.555 256.023ZM687.836 203.219C693.227 196.75 700 193.516 708.156 193.516C724.656 193.516 733.023 203.102 733.258 222.273V271H712.938V222.836C712.938 218.477 712 215.266 710.125 213.203C708.25 211.094 705.133 210.039 700.773 210.039C694.82 210.039 690.508 212.336 687.836 216.93V271H667.516V163H687.836V203.219Z" fill="white"/>
</svg>
